<?xml version="1.0" encoding="UTF-8"?>
<svg version="1.1" xmlns="http://www.w3.org/2000/svg" width="512" height="512">
<path d="M0 0 C1.7614978 7.63390657 2.65811494 15.26999614 3.37768555 23.06518555 C3.56000908 25.03558032 3.75162065 27.0051085 3.94335938 28.97460938 C5.67142508 47.20525017 6.24056385 65.3135942 6.25 83.625 C6.25067474 84.80985992 6.25134949 85.99471985 6.25204468 87.21548462 C6.18466583 162.228298 -2.55858949 258.22457313 -54 317 C-54.68320312 317.82628906 -55.36640625 318.65257812 -56.0703125 319.50390625 C-65.03410036 330.0259153 -76.48250233 339.96916346 -90.74414062 341.24560547 C-148.87813313 344.23041219 -205.75030348 321.18129026 -251 286 C-251.54205078 285.57944336 -252.08410156 285.15888672 -252.64257812 284.72558594 C-268.87268032 271.96744047 -283.97182993 256.78468023 -296 240 C-296.98930622 238.65474408 -297.97890366 237.30970229 -298.96875 235.96484375 C-321.71279263 204.73497002 -337.15841096 169.06784791 -344 131 C-344.16081055 130.1248877 -344.32162109 129.24977539 -344.48730469 128.34814453 C-346.52651668 116.77509093 -347.34175844 105.16663967 -347.52670288 93.4274292 C-347.55018518 92.04007153 -347.58277342 90.65283175 -347.62539673 89.26593018 C-347.95824521 77.26325662 -345.030067 68.77189615 -337.5 59.4375 C-282.94247775 2.52571319 -176.11862208 -5.19552488 0 0 Z " fill="#000000" transform="translate(347,171)"/>
<path d="M0 0 C0.69351562 0.61359375 1.38703125 1.2271875 2.1015625 1.859375 C2.81570313 2.43171875 3.52984375 3.0040625 4.265625 3.59375 C38.98563727 32.30217004 54.09334855 86.91914404 63.1015625 128.859375 C63.1015625 129.519375 63.1015625 130.179375 63.1015625 130.859375 C52.69939955 130.27028082 42.31996315 129.50433624 31.93969727 128.60791016 C13.96001459 127.10776124 -3.9866144 126.65325367 -22.0234375 126.671875 C-23.11448792 126.67247925 -24.20553833 126.6730835 -25.32965088 126.67370605 C-44.25106649 126.70197012 -63.0482432 127.18325734 -81.8984375 128.859375 C-82.96496552 128.95412109 -82.96496552 128.95412109 -84.05303955 129.05078125 C-147.58849005 134.79044277 -218.1757915 146.76371568 -270.8984375 184.859375 C-272.31538979 180.60851813 -270.85932398 177.36917819 -269.5859375 173.234375 C-269.18314575 171.9194104 -269.18314575 171.9194104 -268.7722168 170.57788086 C-261.50011071 147.54115377 -251.71360564 124.77474726 -237.8984375 104.859375 C-237.52364258 104.31764648 -237.14884766 103.77591797 -236.76269531 103.21777344 C-226.9145521 89.04300743 -216.13957092 76.04401089 -203.8984375 63.859375 C-202.95026332 62.87911031 -202.00372614 61.8972603 -201.05859375 60.9140625 C-185.77506625 45.14612825 -167.9528361 32.69537951 -148.8984375 21.859375 C-148.18977539 21.4557373 -147.48111328 21.05209961 -146.75097656 20.63623047 C-120.46302096 5.83841296 -91.64635055 -3.4390694 -61.8984375 -8.140625 C-61.1873584 -8.25776855 -60.4762793 -8.37491211 -59.74365234 -8.49560547 C-39.35864266 -11.75972907 -16.66168574 -14.17757987 0 0 Z " fill="#000000" transform="translate(278.8984375,10.140625)"/>
<path d="M0 0 C7.87418672 0.51481226 15.29928713 2.06214618 22.9375 4 C24.15606689 4.30905273 25.37463379 4.61810547 26.63012695 4.93652344 C58.31091071 13.16932514 91.85687752 24.23786558 117 46 C117.61875 46.47566406 118.2375 46.95132813 118.875 47.44140625 C125.81426115 52.87819344 132.83813286 61.32532045 135 70 C135.44012507 74.81272182 135.43279097 79.60949142 135.375 84.4375 C135.37034729 85.12395599 135.36569458 85.81041199 135.36090088 86.51766968 C134.91803 142.49541292 114.24339793 195.2261141 80 239 C79.58089355 239.53915039 79.16178711 240.07830078 78.72998047 240.63378906 C65.96324509 256.87859161 50.7697445 271.92919408 34 284 C32.85335128 284.85176801 31.70753275 285.70465463 30.5625 286.55859375 C22.37089798 292.60603133 13.86096602 297.99098412 5 303 C4.29278809 303.4021875 3.58557617 303.804375 2.85693359 304.21875 C-14.52631491 314.005668 -39.59798857 328 -60 328 C-58.55827663 324.81717901 -56.6992763 322.00724538 -54.7265625 319.13037109 C-39.4318962 296.81985597 -28.5284081 272.61779102 -20 247 C-19.68434082 246.05431152 -19.36868164 245.10862305 -19.04345703 244.13427734 C-6.49057858 205.99309673 -0.05143835 165.96796889 3 126 C3.14248169 124.21698486 3.14248169 124.21698486 3.2878418 122.39794922 C4.19026036 109.50098424 4.18610806 96.59963758 4.18530273 83.67578125 C4.18747237 79.7993645 4.20564139 75.92324107 4.22460938 72.046875 C4.27861356 47.91016365 2.62463312 23.98467922 0 0 Z " fill="#000000" transform="translate(377,177)"/>
<path d="M0 0 C7.60476758 1.17455594 14.69255097 2.98293539 21.9375 5.5625 C22.9275 5.91183594 23.9175 6.26117188 24.9375 6.62109375 C62.13554292 20.01809005 94.11077166 41.11077166 122 69 C123.24136719 70.18916016 123.24136719 70.18916016 124.5078125 71.40234375 C131.75127589 78.41877321 137.97100132 85.92648111 144 94 C144.41604492 94.54994629 144.83208984 95.09989258 145.26074219 95.66650391 C164.52419539 121.23144359 182.20633692 153.20459473 188 185 C187.67 185.99 187.34 186.98 187 188 C186.06542969 187.39414063 185.13085938 186.78828125 184.16796875 186.1640625 C149.88827451 164.18251325 112.51728565 151.96310583 73 143 C71.50001465 142.6589624 71.50001465 142.6589624 69.96972656 142.31103516 C64.98508243 141.18242012 59.99608712 140.07680057 55 139 C54.82460693 138.18660156 54.64921387 137.37320313 54.46850586 136.53515625 C44.58037692 90.97352814 31.95017961 41.0553383 1.7109375 4.2109375 C0 2 0 2 0 0 Z " fill="#000000" transform="translate(317,7)"/>
</svg>
